<svg viewBox="0 0 1257.71 1600" xmlns="http://www.w3.org/2000/svg" id="图层_1"><defs><style>.cls-1{fill:#004752;}.cls-2{fill:#ffdf99;}.cls-3{fill:teal;}.cls-4{fill:#ffc001;}.cls-5{fill:#8cc442;}.cls-6{fill:#d85252;}</style></defs><g id="浪漫"><rect transform="translate(-601.83 -62.56) rotate(-11.12)" rx="3.98" height="79.53" width="105.94" y="1213.93" x="537.7" class="cls-1"></rect><circle r="150.62" cy="1449.38" cx="267.38" class="cls-1"></circle><circle r="53.79" cy="1449.38" cx="267.38" class="cls-2"></circle><circle r="150.62" cy="1449.38" cx="1107.09" class="cls-1"></circle><circle r="53.79" cy="1449.38" cx="1107.09" class="cls-2"></circle><rect rx="61.1" height="122.2" width="499.75" y="1325.99" x="465.27" class="cls-3"></rect><rect rx="21.48" height="53.16" width="265.8" y="1011.89" x="378.32" class="cls-1"></rect><rect rx="66.82" height="245.66" width="327.78" y="808.04" x="37.48" class="cls-3"></rect><rect rx="48.19" height="96.37" width="127.59" y="1078.84" x="9.91" class="cls-1"></rect><path d="M57.91,1078.84h.64a0,0,0,0,1,0,0v96.37a0,0,0,0,1,0,0h-.64a48,48,0,0,1-48-48v-.37A48,48,0,0,1,57.91,1078.84Z" class="cls-4"></path><path transform="translate(-371.15 -200)" d="M960.73,1423.8h0a102.35,102.35,0,0,1,78.21-99.44c12.35-3,18.12-17.25,11.66-28.2a63,63,0,0,0-54.22-31.11h-305c-176.13,0-320.23,144.1-320.23,320.23h0a63.09,63.09,0,0,0,62.9,62.91H996.38a63.1,63.1,0,0,0,62.91-62.91V1526A102.3,102.3,0,0,1,960.73,1423.8Z" class="cls-3"></path><path transform="translate(-371.15 -200)" d="M648.24,1119.36c0-24.73-19.75-44.79-44.11-44.79-12.4,0-23.59,6.6-31.61,15-8-8.36-19.21-15-31.61-15-24.36,0-44.11,20.06-44.11,44.79,0,36.59,57.73,84.71,75.72,84.71C590.8,1204.07,648.24,1153.4,648.24,1119.36Z" class="cls-2"></path><path d="M138.3,1310H313.73a1,1,0,0,1,1,1v15.95a.81.81,0,0,1-.81.81H138.3a.81.81,0,0,1-.81-.81v-16.1a.81.81,0,0,1,.81-.81Z" class="cls-1"></path><path d="M138.3,1383.28H313.73a1,1,0,0,1,1,1v15.95a.81.81,0,0,1-.81.81H138.3a.81.81,0,0,1-.81-.81v-16.1a.81.81,0,0,1,.81-.81Z" class="cls-1"></path><path d="M102.86,1346.64H349.17a1,1,0,0,1,1,1v15.95a.81.81,0,0,1-.81.81H102.86a.81.81,0,0,1-.81-.81v-16.1a.81.81,0,0,1,.81-.81Z" class="cls-1"></path><path transform="translate(-371.15 -200)" d="M1287.31,1057.67h114l103.83,383.09H1287.31s16.51-51.24,16.51-193.08S1287.31,1057.67,1287.31,1057.67Z" class="cls-3"></path><rect rx="62.67" height="135.05" width="266.37" y="765.43" x="852.03" class="cls-3"></rect><path transform="translate(2633.73 1863.82) rotate(180)" d="M1526.12,983.73h.64a0,0,0,0,1,0,0v96.37a0,0,0,0,1,0,0h-.64a48,48,0,0,1-48-48v-.37a48,48,0,0,1,48-48Z" class="cls-4"></path><rect rx="21.39" height="147.94" width="51.52" y="757.94" x="1055.45" class="cls-1"></rect><rect rx="23.75" height="47.5" width="165.59" y="816.8" x="799.44" class="cls-1"></rect><path transform="translate(-371.15 -200)" d="M1252.7,1016.8H1240a23.75,23.75,0,0,1,23.75,23.75h0A23.75,23.75,0,0,1,1240,1064.3h12.67a23.75,23.75,0,0,0,23.75-23.75h0A23.75,23.75,0,0,0,1252.7,1016.8Z" class="cls-5"></path><circle r="23.75" cy="840.55" cx="823.19" class="cls-5"></circle><path transform="translate(-371.15 -200)" d="M1200.26,766.93h-8.14c-.34,0-.68,0-1,0V889c.34,0,.68,0,1,0h8.14c19.76,0,35.94-27.46,35.94-61h0C1236.2,794.39,1220,766.93,1200.26,766.93Z" class="cls-2"></path><rect height="121.91" width="11.24" y="567.01" x="819.96" class="cls-4"></rect><rect rx="0.81" height="38.1" width="16.13" y="608.91" x="854.76" class="cls-2"></rect><rect rx="0.35" height="7.09" width="50.77" y="624.42" x="856.22" class="cls-2"></rect><rect transform="translate(1429.89 -794.46) rotate(73.46)" rx="0.36" height="7.28" width="177.21" y="905.87" x="1210.21" class="cls-2"></rect><circle r="9.84" cy="791.9" cx="951.34" class="cls-2"></circle><path transform="translate(-371.15 -200)" d="M1495.09,1495.3A168.2,168.2,0,0,1,1564,1510c14.2,1.89,24.73-15.33,16.83-29.06-35.19-61.19-105.77-94.5-177.37-93.08-107.25,2.11-192.14,96.14-192.14,212.69a231.1,231.1,0,0,0,5.08,48.34H1327A168.82,168.82,0,0,1,1495.09,1495.3Z" class="cls-3"></path><path transform="translate(-371.15 -200)" d="M916,1095.05c2.43-.37,5-3.52,6.9-8.58a431.16,431.16,0,0,0,20.68-79c8.45-50.75-11.23-45.44-1.29-105.13,6.63-39.84,26.31-45.15,36.71-107.6,8.2-49.22,1.66-80.1-1.47-91-.82-2.84-2.26-4.2-3.91-3.79h0c-2.8.69-5.08,8.73-4,14,3.09,14.78,6.27,42.8-.45,83.13-9.23,55.46-26.34,45.31-36.71,107.6-10.29,61.81,10.26,54.38,1.49,107.07a329,329,0,0,1-19.29,69.57c-2.4,5.88-1.61,14.06,1.31,13.62Z" class="cls-1"></path><path transform="translate(-371.15 -200)" d="M756.89,687.79c-2,1.85-3.06,6.22-2.85,11.85a452.81,452.81,0,0,0,11.23,82.14c11.45,49.73,26.7,32.71,40.18,91.21,9,39.06-6.27,56.08,7.83,117.29,11.11,48.25,28.3,71.16,35.08,78.71,1.77,2,3.53,2.26,4.83.86h0c2.2-2.36,1.2-10.83-1.74-14.78-8.2-11-21.39-33.53-30.49-73.06-12.52-54.36,6.23-56.24-7.83-117.29-14-60.57-29.18-41.14-41.08-92.79a349.22,349.22,0,0,1-8.95-73c-.08-6.65-3.81-13.32-6.21-11.1Z" class="cls-1"></path><path transform="translate(-371.15 -200)" d="M898.86,1074.64c-2.22-.87-4.46-5-6-11.32a683.52,683.52,0,0,1-16.19-96.55c-6-61.18,11.94-51.4,4.94-123.36-4.68-48-22.58-57.82-29.91-133.11-5.78-59.34,1.33-94.46,4.6-106.68.86-3.19,2.23-4.53,3.73-3.76h0c2.55,1.32,4.36,11.18,3.15,17.22-3.37,16.83-7.29,49.19-2.56,97.81,6.51,66.87,22.6,58,29.91,133.11,7.25,74.51-11.38,62.08-5.19,125.61a520.21,520.21,0,0,0,15.25,85.26c2,7.34,1,16.82-1.7,15.77Z" class="cls-1"></path><path transform="translate(-371.15 -200)" d="M998.57,718.59l-39.5-6.51c-3-.5-5.16-3.14-4.71-5.86l17-24.17a2.68,2.68,0,0,1,3.18-2l19.74,3.26a2.67,2.67,0,0,1,2.36,2.92l8.31,28.34C1004.46,717.27,1001.61,719.09,998.57,718.59Z" class="cls-2"></path><path transform="translate(-371.15 -200)" d="M1152.27,531.88c-12.7,77-76,169.06-168.56,153.8-81.09-13.36-123-122.76-110.28-199.76a141.3,141.3,0,1,1,278.84,46Z" class="cls-2"></path><path transform="translate(-371.15 -200)" d="M879.44,608.37l-46.68.91c-3.6.08-6.59-2.5-6.65-5.71l14.32-31.33a3.13,3.13,0,0,1,3.21-3l23.35-.46a3.12,3.12,0,0,1,3.32,2.86l15.55,30.74C885.92,605.61,883,608.3,879.44,608.37Z" class="cls-6"></path><path transform="translate(-371.15 -200)" d="M1016.09,361.58c1.79,91-51.3,210.05-160.68,212.2-95.84,1.89-167.12-114.7-168.91-205.71a164.83,164.83,0,0,1,329.59-6.49Z" class="cls-6"></path><path transform="translate(-371.15 -200)" d="M771.05,692.28,737,700.36a4.66,4.66,0,0,1-5.78-3.13L736.73,672a2.33,2.33,0,0,1,1.87-2.69l17-4a2.34,2.34,0,0,1,2.89,1.57l16.27,20.06A4.67,4.67,0,0,1,771.05,692.28Z" class="cls-2"></path><path transform="translate(-371.15 -200)" d="M832,489.72c15.76,66.42-4.27,162.09-84.09,181-70,16.59-140.69-57.55-156.45-124A123.61,123.61,0,0,1,832,489.72Z" class="cls-2"></path><rect rx="25.01" height="141.05" width="141.05" y="870.84" x="454.92" class="cls-4"></rect><rect rx="12.97" height="48.46" width="184.8" y="870.84" x="433.05" class="cls-2"></rect><path transform="translate(-371.15 -200)" d="M969.41,1065.59l0,0-11-19.12a11.49,11.49,0,0,0-15.66-4.19l-46.08,26.61-46.09-26.61a11.49,11.49,0,0,0-15.66,4.19l-11,19.12,0,0a3.54,3.54,0,0,0,3.13,5.25H966.28A3.55,3.55,0,0,0,969.41,1065.59Z" class="cls-6"></path><rect rx="1.27" height="48.46" width="25.45" y="870.84" x="512.72" class="cls-6"></rect></g></svg>